HIERARCHY
ROOT Hips
{
    OFFSET 0.000000 0.000000 0.000000
    CHANNELS 6 Xposition Yposition Zposition Zrotation Xrotation Yrotation
    JOINT Spine
    {
        OFFSET -0.000000 7.236184 0.000000
        CHANNELS 3 Zrotation Xrotation Yrotation
        JOINT Spine1
        {
            OFFSET -0.000000 20.420147 0.000000
            CHANNELS 3 Zrotation Xrotation Yrotation
            JOINT Neck
            {
                OFFSET -0.000000 20.336288 1.848754
                CHANNELS 3 Zrotation Xrotation Yrotation
                JOINT Head
                {
                    OFFSET -0.000000 12.354461 -1.764923
                    CHANNELS 3 Zrotation Xrotation Yrotation
                    End Site
                    {
                        OFFSET -0.000000 22.061537 0.000000
                    }
                }
            }
            JOINT LeftShoulder
            {
                OFFSET 3.573296 18.396038 -0.314103
                CHANNELS 3 Zrotation Xrotation Yrotation
                JOINT LeftArm
                {
                    OFFSET 10.880760 0.000000 0.000000
                    CHANNELS 3 Zrotation Xrotation Yrotation
                    JOINT LeftForeArm
                    {
                        OFFSET 27.185530 0.000000 0.000000
                        CHANNELS 3 Zrotation Xrotation Yrotation
                        JOINT LeftHand
                        {
                            OFFSET 27.825975 0.000000 0.000000
                            CHANNELS 3 Zrotation Xrotation Yrotation
                            End Site
                            {
                                OFFSET 13.236923 0.000000 0.000000
                            }
                        }
                    }
                }
            }
            JOINT RightShoulder
            {
                OFFSET -3.474926 18.396038 -0.314103
                CHANNELS 3 Zrotation Xrotation Yrotation
                JOINT RightArm
                {
                    OFFSET -10.880760 0.000000 0.000000
                    CHANNELS 3 Zrotation Xrotation Yrotation
                    JOINT RightForeArm
                    {
                        OFFSET -27.185530 0.000000 0.000000
                        CHANNELS 3 Zrotation Xrotation Yrotation
                        JOINT RightHand
                        {
                            OFFSET -27.825975 0.000000 0.000000
                            CHANNELS 3 Zrotation Xrotation Yrotation
                            End Site
                            {
                                OFFSET -13.236923 0.000000 0.000000
                            }
                        }
                    }
                }
            }
        }
    }
    JOINT LeftUpLeg
    {
        OFFSET 8.824615 0.000000 0.000000
        CHANNELS 3 Zrotation Xrotation Yrotation
        JOINT LeftLeg
        {
            OFFSET -0.000000 -35.111282 0.000000
            CHANNELS 3 Zrotation Xrotation Yrotation
            JOINT LeftFoot
            {
                OFFSET -0.000000 -42.324711 0.000000
                CHANNELS 3 Zrotation Xrotation Yrotation
                JOINT LeftToeBase
                {
                    OFFSET -0.000000 -5.735999 13.236923
                    CHANNELS 3 Zrotation Xrotation Yrotation
                    End Site
                    {
                        OFFSET -0.000000 0.000000 3.529846
                    }
                }
            }
        }
    }
    JOINT RightUpLeg
    {
        OFFSET -8.824615 0.000000 0.000000
        CHANNELS 3 Zrotation Xrotation Yrotation
        JOINT RightLeg
        {
            OFFSET -0.000000 -35.111282 0.000000
            CHANNELS 3 Zrotation Xrotation Yrotation
            JOINT RightFoot
            {
                OFFSET -0.000000 -42.324711 0.000000
                CHANNELS 3 Zrotation Xrotation Yrotation
                JOINT RightToeBase
                {
                    OFFSET -0.000000 -5.735999 13.236923
                    CHANNELS 3 Zrotation Xrotation Yrotation
                    End Site
                    {
                        OFFSET -0.000000 0.000000 3.529846
                    }
                }
            }
        }
    }
}
MOTION
Frames:    9
Frame Time:    0.008333
-9.319107    81.565575    107.375648    -0.890083    -5.703732    -177.405655    -1.593781    -9.881865    0.909590    -0.264379    5.543500    1.060246    3.200002    3.904299    4.181862    -6.646530    -14.697112    2.211609    -0.020212    16.888988    -3.137381    -40.349598    44.561428    -40.885780    2.337128    -8.495150    -20.236359    17.860216    -7.716372    2.349771    7.459821    18.045807    -5.513558    33.260876    46.832039    43.428608    -4.070899    -12.545012    35.672356    -5.946588    -11.229887    -0.649516    -1.758825    -12.358919    -4.268824    -1.077912    26.685215    4.647775    -4.502352    -14.899963    -10.674648    0.245444    -0.343468    -0.272235    -3.393332    -10.701941    -0.887088    7.256653    27.583473    -2.936189    -0.569035    -10.762668    -12.473656    -0.496382    -5.364808    0.541041    
-9.347781    81.535164    107.453857    -0.903469    -5.806361    -177.513306    -1.583006    -9.782710    0.915260    -0.245480    5.517184    1.062602    3.190953    3.740800    4.285084    -6.793601    -14.820916    2.269020    -0.001835    16.836815    -3.129148    -40.510815    44.348385    -40.688828    2.402156    -8.810706    -20.459978    18.103315    -7.993807    2.459919    7.442749    18.033283    -5.496544    33.265099    46.699093    43.335506    -4.170824    -12.561786    35.649597    -6.233123    -11.210225    -0.729127    -1.823495    -12.625902    -4.296661    -1.060613    26.907282    4.719876    -4.503428    -15.008093    -10.681665    0.235592    -0.298444    -0.261286    -3.529901    -11.323309    -0.905464    7.468729    28.346497    -3.061918    -0.530117    -10.686366    -12.432724    -0.531045    -5.510263    0.578950    
-9.375351    81.494362    107.535316    -0.915470    -5.900444    -177.623169    -1.572656    -9.672054    0.918002    -0.226217    5.493262    1.061956    3.188894    3.580964    4.388767    -6.937076    -14.949022    2.326624    0.011162    16.795753    -3.124744    -40.675827    44.122005    -40.503880    2.453851    -9.115903    -20.640318    18.307760    -8.265873    2.561125    7.438596    18.023399    -5.477656    33.265488    46.554752    43.260189    -4.265421    -12.569429    35.572479    -6.526372    -11.185184    -0.802793    -1.892488    -12.910602    -4.343616    -1.047408    27.176008    4.815404    -4.495335    -15.142636    -10.682347    0.222711    -0.250398    -0.246979    -3.668064    -11.976884    -0.956264    7.683031    29.176847    -3.181319    -0.498676    -10.606688    -12.390694    -0.564560    -5.670545    0.615637    
-9.401522    81.442535    107.619713    -0.926296    -5.985149    -177.733841    -1.561990    -9.549387    0.917651    -0.209343    5.471108    1.058118    3.195989    3.425994    4.492745    -7.078861    -15.080759    2.383517    0.019167    16.766310    -3.125163    -40.845039    43.879303    -40.329533    2.493142    -9.406478    -20.775063    18.471033    -8.529181    2.649026    7.447943    18.017118    -5.456672    33.269180    46.396019    43.198933    -4.353875    -12.567274    35.439079    -6.821080    -11.154621    -0.870674    -1.965755    -13.214559    -4.407133    -1.038100    27.495697    4.933588    -4.478198    -15.301497    -10.678963    0.204349    -0.204611    -0.226598    -3.806694    -12.658395    -1.040422    7.894827    30.069983    -3.289906    -0.474055    -10.523447    -12.348455    -0.595559    -5.846018    0.649615    
-9.425768    81.379539    107.706200    -0.936177    -6.059739    -177.843002    -1.550743    -9.415487    0.914048    -0.197221    5.450026    1.051208    3.213099    3.278088    4.595681    -7.218278    -15.214827    2.438513    0.022641    16.748917    -3.131180    -41.018078    43.619621    -40.166191    2.521162    -9.676867    -20.860336    18.589258    -8.779083    2.719339    7.471193    18.015055    -5.433797    33.282753    46.222431    43.148380    -4.435918    -12.555922    35.248978    -7.108942    -11.119509    -0.932252    -2.042531    -13.538821    -4.484137    -1.033277    27.869804    5.071621    -4.451088    -15.481163    -10.672599    0.178622    -0.165986    -0.198056    -3.943893    -13.358335    -1.155594    8.099062    31.013111    -3.382440    -0.456408    -10.437572    -12.309372    -0.622832    -6.035231    0.679559    
-9.447697    81.304993    107.794594    -0.945195    -6.124602    -177.949295    -1.538935    -9.271366    0.907485    -0.190778    5.430209    1.041385    3.241137    3.137660    4.697050    -7.357329    -15.350393    2.490441    0.021886    16.743093    -3.143474    -41.194717    43.342422    -40.013153    2.540211    -9.925749    -20.894993    18.661085    -9.014258    2.770864    7.507932    18.017479    -5.409350    33.312595    46.032486    43.104721    -4.512343    -12.536567    35.001293    -7.383287    -11.081023    -0.987326    -2.122219    -13.887221    -4.572656    -1.033897    28.303957    5.228818    -4.413375    -15.678729    -10.664745    0.144833    -0.139768    -0.160583    -4.078256    -14.071822    -1.297130    8.293036    31.998144    -3.457413    -0.445254    -10.349977    -12.275598    -0.645676    -6.236299    0.704701    
-9.466786    81.219017    107.884323    -0.953141    -6.180373    -178.051025    -1.527285    -9.119668    0.898500    -0.188756    5.412640    1.029281    3.278031    3.005502    4.795208    -7.495115    -15.486751    2.538067    0.015955    16.747677    -3.163806    -41.374310    43.049255    -39.869625    2.553333    -10.152173    -20.877716    18.686146    -9.233359    2.803613    7.556823    18.024561    -5.384005    33.362152    45.827492    43.065617    -4.585270    -12.512632    34.696659    -7.636466    -11.042198    -1.035651    -2.203616    -14.262024    -4.671954    -1.041646    28.800701    5.405885    -4.366611    -15.890318    -10.657173    0.104359    -0.129828    -0.115706    -4.207490    -14.790515    -1.458083    8.474218    33.011036    -3.514289    -0.440246    -10.262671    -12.249434    -0.663981    -6.444396    0.724912    
-9.482755    81.120934    107.975815    -0.959694    -6.228629    -178.147766    -1.516303    -8.962166    0.887763    -0.189349    5.399328    1.015593    3.322203    2.879734    4.889631    -7.633101    -15.623952    2.580619    0.003508    16.760193    -3.193471    -41.557877    42.740192    -39.733170    2.564316    -10.359385    -20.807648    18.664110    -9.438825    2.818943    7.617047    18.036268    -5.358494    33.438763    45.602413    43.026432    -4.656165    -12.484497    34.332191    -7.864239    -11.003263    -1.076739    -2.286110    -14.669304    -4.783178    -1.058880    29.366865    5.606514    -4.314700    -16.114799    -10.651601    0.060415    -0.136356    -0.066985    -4.330530    -15.514591    -1.634443    8.641671    34.049332    -3.553414    -0.440654    -10.177893    -12.230900    -0.677882    -6.657000    0.740332    
-9.495189    81.010101    108.069359    -0.964128    -6.270863    -178.239151    -1.506178    -8.800736    0.876150    -0.190532    5.391493    1.001056    3.371331    2.759930    4.979410    -7.771564    -15.762693    2.617232    -0.017135    16.778938    -3.233843    -41.745991    42.414711    -39.602036    2.575826    -10.550279    -20.682329    18.591795    -9.633102    2.817276    7.688095    18.053041    -5.333181    33.547253    45.354664    42.983509    -4.727938    -12.454614    33.904938    -8.062477    -10.966214    -1.110006    -2.368746    -15.114253    -4.905687    -1.086571    30.007849    5.833167    -4.263291    -16.350750    -10.650696    0.017506    -0.159068    -0.019411    -4.445432    -16.243202    -1.824320    8.792435    35.109680    -3.572895    -0.445791    -10.099578    -12.219059    -0.687195    -6.870699    0.750753    
